<svg width="463" height="110" viewBox="0 0 463 110" fill="none" xmlns="http://www.w3.org/2000/svg">
<path d="M63.46 65.29C62.8426 65.2898 62.2337 65.1467 61.6809 64.8719C61.1281 64.5971 60.6464 64.198 60.2735 63.706C59.9006 63.214 59.6467 62.6424 59.5316 62.0359C59.4165 61.4293 59.4433 60.8044 59.61 60.21L68.61 28.21C68.9179 27.2139 69.6026 26.3774 70.5183 25.8787C71.4339 25.38 72.508 25.2585 73.5119 25.5401C74.5158 25.8217 75.37 26.4842 75.8927 27.3863C76.4153 28.2885 76.565 29.3591 76.31 30.37L67.31 62.37C67.0744 63.21 66.5708 63.9499 65.8757 64.477C65.1807 65.0042 64.3323 65.2897 63.46 65.29Z" fill="#00E178"/>
<path d="M51.7 67.83C51.1321 67.8293 50.5708 67.7076 50.0535 67.4731C49.5362 67.2386 49.0748 66.8967 48.7 66.47L33.59 49.3C32.7678 48.4036 32.3117 47.2314 32.3117 46.015C32.3117 44.7986 32.7678 43.6264 33.59 42.73L48.59 24.6C49.2663 23.7818 50.2399 23.2658 51.2967 23.1655C52.3535 23.0651 53.4068 23.3887 54.225 24.065C55.0432 24.7413 55.5592 25.7149 55.6595 26.7717C55.7599 27.8285 55.4363 28.8818 54.76 29.7L41.33 46L54.7 61.19C55.2074 61.7675 55.5375 62.479 55.6511 63.2392C55.7646 63.9995 55.6567 64.7764 55.3402 65.4769C55.0237 66.1775 54.512 66.772 53.8664 67.1893C53.2209 67.6066 52.4687 67.829 51.7 67.83Z" fill="#00E178"/>
<path d="M84.32 67.83C83.3923 67.8272 82.4943 67.5019 81.78 66.91C80.962 66.2349 80.4455 65.2626 80.3443 64.2068C80.243 63.151 80.5652 62.0983 81.24 61.28L94.69 45L81.32 29.79C80.6735 28.9873 80.3617 27.966 80.4498 26.9391C80.5379 25.9122 81.0189 24.9589 81.7927 24.278C82.5664 23.5971 83.5731 23.2412 84.6029 23.2844C85.6327 23.3276 86.606 23.7667 87.32 24.51L102.42 41.68C103.238 42.5816 103.686 43.7577 103.677 44.9748C103.668 46.1918 103.201 47.3609 102.37 48.25L87.37 66.37C86.9991 66.8213 86.5338 67.1859 86.0069 67.4381C85.4799 67.6904 84.9041 67.8241 84.32 67.83Z" fill="#00E178"/>
<path d="M51.55 77.6H16.75V12.86H51.55C52.6109 12.86 53.6283 12.4386 54.3784 11.6884C55.1286 10.9383 55.55 9.92087 55.55 8.86C55.55 7.79914 55.1286 6.78172 54.3784 6.03157C53.6283 5.28143 52.6109 4.86 51.55 4.86H13.39C12.6525 4.84211 11.9226 5.01161 11.2685 5.35266C10.6144 5.6937 10.0575 6.19512 9.65 6.81L9.53 7C9.21048 7.53929 8.98082 8.12697 8.85 8.74L8.75 9.17V81.29L8.85 81.72C8.98229 82.3279 9.20833 82.9116 9.52 83.45L9.65 83.65C10.0439 84.2502 10.5811 84.7428 11.2131 85.0833C11.8452 85.4238 12.5521 85.6013 13.27 85.6H51.55C52.6109 85.6 53.6283 85.1786 54.3784 84.4284C55.1286 83.6783 55.55 82.6609 55.55 81.6C55.55 80.5391 55.1286 79.5217 54.3784 78.7716C53.6283 78.0214 52.6109 77.6 51.55 77.6Z" fill="#006EFF"/>
<path d="M126.45 8.88127C126.319 8.2699 126.093 7.68281 125.78 7.14127L125.66 6.95127C125.25 6.33626 124.691 5.83495 124.036 5.494C123.38 5.15305 122.649 4.98354 121.91 5.00127H83.75C82.6891 5.00127 81.6717 5.4227 80.9216 6.17284C80.1714 6.92299 79.75 7.9404 79.75 9.00127C79.75 10.0621 80.1714 11.0795 80.9216 11.8297C81.6717 12.5798 82.6891 13.0013 83.75 13.0013H118.55V77.7413H83.75C82.6891 77.7413 81.6717 78.1627 80.9216 78.9128C80.1714 79.663 79.75 80.6804 79.75 81.7413C79.75 82.8021 80.1714 83.8195 80.9216 84.5697C81.6717 85.3198 82.6891 85.7413 83.75 85.7413H122C122.719 85.7434 123.428 85.5662 124.062 85.2257C124.696 84.8853 125.235 84.3923 125.63 83.7913L125.75 83.5913C126.061 83.0514 126.29 82.4684 126.43 81.8613L126.52 81.4313V9.31127L126.45 8.88127Z" fill="#006EFF"/>
<path d="M109 95.23C108.55 94.77 107.68 94.79 106.24 94.81C105.73 94.81 105.15 94.81 104.53 94.81C101.08 94.73 95.95 94.81 95.91 94.81H39.07C39.07 94.81 35.07 94.91 31.34 94.81C30.6 94.81 29.88 94.81 29.1 94.81H28.29C27.9395 94.7563 27.5817 94.7738 27.2381 94.8615C26.8945 94.9491 26.572 95.105 26.29 95.32C26.2003 95.417 26.1339 95.5331 26.0958 95.6596C26.0577 95.7861 26.0489 95.9196 26.07 96.05C26.07 97.46 28.56 100.7 31.67 102.61C33.9629 103.911 36.4684 104.794 39.07 105.22H95.52C98.3657 104.85 101.12 103.965 103.65 102.61C106.77 100.81 109.22 97.31 109.29 95.92C109.295 95.7908 109.271 95.6622 109.221 95.543C109.171 95.4239 109.096 95.3171 109 95.23Z" fill="#006EFF"/>
<path d="M157.84 56H154.44C153.88 56 153.6 55.72 153.6 55.16V31.12C153.6 30.56 153.88 30.28 154.44 30.28H164.2C166.28 30.28 167.893 30.8533 169.04 32C170.187 33.12 170.76 34.72 170.76 36.8V40.64C170.76 42.72 170.187 44.3333 169.04 45.48C167.893 46.6 166.28 47.16 164.2 47.16H159.16C158.84 47.16 158.68 47.3067 158.68 47.6V55.16C158.68 55.72 158.4 56 157.84 56ZM159.12 42.72H163.36C164.213 42.72 164.813 42.5467 165.16 42.2C165.507 41.8267 165.68 41.2267 165.68 40.4V37.04C165.68 36.1867 165.507 35.5867 165.16 35.24C164.813 34.8667 164.213 34.68 163.36 34.68H159.12C158.827 34.68 158.68 34.8267 158.68 35.12V42.28C158.68 42.5733 158.827 42.72 159.12 42.72ZM187.051 56H183.651C183.091 56 182.811 55.72 182.811 55.16V31.12C182.811 30.56 183.091 30.28 183.651 30.28H193.171C195.251 30.28 196.878 30.8533 198.051 32C199.224 33.1467 199.811 34.76 199.811 36.84V39.96C199.811 42.9733 198.624 44.9733 196.251 45.96V46.12L200.531 55.04C200.771 55.68 200.544 56 199.851 56H196.611C196.131 56 195.784 55.9467 195.571 55.84C195.358 55.7333 195.184 55.5067 195.051 55.16L191.051 46.52H188.371C188.051 46.52 187.891 46.6667 187.891 46.96V55.16C187.891 55.72 187.611 56 187.051 56ZM188.331 42.44H192.251C193.104 42.44 193.731 42.2667 194.131 41.92C194.531 41.5467 194.731 40.96 194.731 40.16V37.04C194.731 36.2133 194.531 35.6133 194.131 35.24C193.731 34.8667 193.104 34.68 192.251 34.68H188.331C188.038 34.68 187.891 34.8267 187.891 35.12V42C187.891 42.2933 188.038 42.44 188.331 42.44ZM219.686 51.6H222.526C223.379 51.6 223.979 51.4267 224.326 51.08C224.699 50.7067 224.886 50.0933 224.886 49.24V37.04C224.886 36.1867 224.699 35.5867 224.326 35.24C223.979 34.8667 223.379 34.68 222.526 34.68H219.686C218.833 34.68 218.233 34.8667 217.886 35.24C217.539 35.5867 217.366 36.1867 217.366 37.04V49.24C217.366 50.0933 217.539 50.7067 217.886 51.08C218.233 51.4267 218.833 51.6 219.686 51.6ZM223.366 56H218.886C216.779 56 215.153 55.44 214.006 54.32C212.859 53.2 212.286 51.5867 212.286 49.48V36.8C212.286 34.6933 212.859 33.08 214.006 31.96C215.153 30.84 216.779 30.28 218.886 30.28H223.366C225.473 30.28 227.099 30.84 228.246 31.96C229.393 33.08 229.966 34.6933 229.966 36.8V49.48C229.966 51.5867 229.393 53.2 228.246 54.32C227.099 55.44 225.473 56 223.366 56Z" fill="#00E178"/>
<path d="M254.04 56H249.8C247.693 56 246.067 55.44 244.92 54.32C243.773 53.2 243.2 51.5867 243.2 49.48V36.8C243.2 34.6933 243.773 33.08 244.92 31.96C246.067 30.84 247.693 30.28 249.8 30.28H254.04C256.12 30.28 257.733 30.8533 258.88 32C260.027 33.12 260.6 34.72 260.6 36.8V38C260.6 38.5867 260.32 38.88 259.76 38.88H256.36C255.8 38.88 255.52 38.5867 255.52 38V37.04C255.52 36.1867 255.347 35.5867 255 35.24C254.653 34.8667 254.053 34.68 253.2 34.68H250.6C249.773 34.68 249.173 34.8667 248.8 35.24C248.453 35.5867 248.28 36.1867 248.28 37.04V49.24C248.28 50.0933 248.453 50.7067 248.8 51.08C249.173 51.4267 249.773 51.6 250.6 51.6H253.2C254.053 51.6 254.653 51.4267 255 51.08C255.347 50.7067 255.52 50.0933 255.52 49.24V46.72C255.52 46.4267 255.373 46.28 255.08 46.28H252.68C252.12 46.28 251.84 46 251.84 45.44V42.72C251.84 42.16 252.12 41.88 252.68 41.88H259.68C260.293 41.88 260.6 42.1867 260.6 42.8V49.48C260.6 51.56 260.027 53.1733 258.88 54.32C257.733 55.44 256.12 56 254.04 56ZM277.637 56H274.237C273.677 56 273.397 55.72 273.397 55.16V31.12C273.397 30.56 273.677 30.28 274.237 30.28H283.757C285.837 30.28 287.464 30.8533 288.637 32C289.81 33.1467 290.397 34.76 290.397 36.84V39.96C290.397 42.9733 289.21 44.9733 286.837 45.96V46.12L291.117 55.04C291.357 55.68 291.13 56 290.437 56H287.197C286.717 56 286.37 55.9467 286.157 55.84C285.944 55.7333 285.77 55.5067 285.637 55.16L281.637 46.52H278.957C278.637 46.52 278.477 46.6667 278.477 46.96V55.16C278.477 55.72 278.197 56 277.637 56ZM278.917 42.44H282.837C283.69 42.44 284.317 42.2667 284.717 41.92C285.117 41.5467 285.317 40.96 285.317 40.16V37.04C285.317 36.2133 285.117 35.6133 284.717 35.24C284.317 34.8667 283.69 34.68 282.837 34.68H278.917C278.624 34.68 278.477 34.8267 278.477 35.12V42C278.477 42.2933 278.624 42.44 278.917 42.44ZM305.952 56H302.112C301.632 56 301.472 55.72 301.632 55.16L307.952 31.12C308.139 30.56 308.539 30.28 309.152 30.28H314.472C315.139 30.28 315.539 30.56 315.672 31.12L321.992 55.16C322.152 55.72 321.992 56 321.512 56H317.672C317.379 56 317.179 55.9467 317.072 55.84C316.965 55.7067 316.885 55.48 316.832 55.16L315.712 50.76H307.912L306.792 55.16C306.739 55.48 306.645 55.7067 306.512 55.84C306.405 55.9467 306.219 56 305.952 56ZM311.752 35.12L308.872 46.68H314.792L311.912 35.12H311.752ZM350.618 30.28H356.538C357.098 30.28 357.378 30.56 357.378 31.12V55.16C357.378 55.72 357.098 56 356.538 56H353.258C352.698 56 352.418 55.72 352.418 55.16V36.2H352.258L348.178 49.6C348.018 50.1333 347.684 50.4 347.178 50.4H343.818C343.311 50.4 342.978 50.1333 342.818 49.6L338.658 36.16H338.498V55.16C338.498 55.48 338.444 55.7067 338.338 55.84C338.231 55.9467 338.004 56 337.658 56H334.378C333.818 56 333.538 55.72 333.538 55.16V31.12C333.538 30.56 333.818 30.28 334.378 30.28H340.338C340.711 30.28 340.964 30.4667 341.098 30.84L345.338 44.96H345.578L349.858 30.84C349.938 30.4667 350.191 30.28 350.618 30.28ZM373.241 56H369.401C368.921 56 368.761 55.72 368.921 55.16L375.241 31.12C375.428 30.56 375.828 30.28 376.441 30.28H381.761C382.428 30.28 382.828 30.56 382.961 31.12L389.281 55.16C389.441 55.72 389.281 56 388.801 56H384.961C384.668 56 384.468 55.9467 384.361 55.84C384.254 55.7067 384.174 55.48 384.121 55.16L383.001 50.76H375.201L374.081 55.16C374.028 55.48 373.934 55.7067 373.801 55.84C373.694 55.9467 373.508 56 373.241 56ZM379.041 35.12L376.161 46.68H382.081L379.201 35.12H379.041ZM408.787 56H405.427C404.84 56 404.547 55.72 404.547 55.16V35.12C404.547 34.8267 404.4 34.68 404.107 34.68H399.547C398.987 34.68 398.707 34.4 398.707 33.84V31.12C398.707 30.56 398.987 30.28 399.547 30.28H414.667C415.227 30.28 415.507 30.56 415.507 31.12V33.84C415.507 34.4 415.227 34.68 414.667 34.68H410.107C409.787 34.68 409.627 34.8267 409.627 35.12V55.16C409.627 55.72 409.347 56 408.787 56ZM440.481 56H427.401C426.841 56 426.561 55.72 426.561 55.16V31.12C426.561 30.56 426.841 30.28 427.401 30.28H440.481C441.014 30.28 441.281 30.56 441.281 31.12V33.84C441.281 34.4 441.014 34.68 440.481 34.68H432.121C431.801 34.68 431.641 34.8267 431.641 35.12V40.32C431.641 40.6133 431.801 40.76 432.121 40.76H438.961C439.521 40.76 439.801 41.04 439.801 41.6V44.32C439.801 44.88 439.521 45.16 438.961 45.16H432.121C431.801 45.16 431.641 45.3067 431.641 45.6V51.16C431.641 51.4533 431.801 51.6 432.121 51.6H440.481C441.014 51.6 441.281 51.88 441.281 52.44V55.16C441.281 55.72 441.014 56 440.481 56Z" fill="#006EFF"/>
<path d="M314.228 29.053C314.163 29.1195 314.085 29.1724 313.999 29.2084C313.913 29.2445 313.821 29.2631 313.728 29.2631C313.635 29.2631 313.543 29.2445 313.457 29.2084C313.371 29.1724 313.293 29.1195 313.228 29.053C313.15 28.9682 313.093 28.8655 313.064 28.754C313.034 28.6425 313.032 28.5255 313.058 28.413L315.758 16.533C315.782 16.4297 315.83 16.3334 315.897 16.2515C315.965 16.1696 316.05 16.1043 316.147 16.0608C316.244 16.0172 316.349 15.9966 316.455 16.0005C316.561 16.0043 316.665 16.0326 316.758 16.083L322.998 19.683C323.092 19.74 323.171 19.8176 323.231 19.91C323.29 20.0024 323.327 20.1071 323.34 20.2162C323.352 20.3252 323.34 20.4357 323.303 20.5391C323.266 20.6425 323.206 20.7362 323.128 20.813L314.228 29.053Z" fill="#00E178"/>
</svg>
